# xmcd
#
# Track frame offsets:
#	182
#	15460
#	29090
#	44460
#	60825
#	75312
#	91107
#	107442
#	120975
#	131560
#	155830
#	170202
#	184775
#	198150
#	210070
#	223450
#	235687
#	249055
#
# Disc length: 3489 seconds
#
# Revision: 2
# Processed by: cddbd v1.5.2PL0 Copyright (c) Steve Scherf et al.
# Submitted via: audiograbber 1.83.01
#
DISCID=e00d9f12
DTITLE=Various Artist - Die volkstümliche Hitparade 1995-4 - CD2
DYEAR=1995
DGENRE=Schalger
TTITLE0=Hansi and Maxi - Heimatglocken
TTITLE1=Margot Hellwig - Jede Frau braucht eine Freundin
TTITLE2=Die Kirmesmusikanten - Die Liebe ist das schönste auf der ganzen Welt
TTITLE3=Regina Thoss - Die alte Litfaßsäule
TTITLE4=Dieter Dorning - Rosmary (eine Liebe wie unsre gabs nie)
TTITLE5=Geschwister Hofmann - Der Junge von San Angelo
TTITLE6=Martin Berger - Sonne und Wind
TTITLE7=Andy and Bernd - In Hannover an der Leine
TTITLE8=Dino Engel - Tschüß, Freunde
TTITLE9=Peter Sebastian - Mensch Hans, hör uns an im Himmel
TTITLE10=Simone and Bettina - Heidemorgen
TTITLE11=Fiete Münzer - Papa, warum bist Du Seemann
TTITLE12=Die Tornados - Der Enzian
TTITLE13=Isarflimmern - I tausch mei Schreibmaschine
TTITLE14=Pustertaler Alpentrio - So schön ist doch nur Südtirol
TTITLE15=Teddy Parker - S'Frauenkäferl
TTITLE16=Vergissmeinnicht - Alle meine Freunde
TTITLE17=Joshi Shalay - Pannonische Träume
EXTD=
EXTT0=
EXTT1=
EXTT2=
EXTT3=
EXTT4=
EXTT5=
EXTT6=
EXTT7=
EXTT8=
EXTT9=
EXTT10=
EXTT11=
EXTT12=
EXTT13=
EXTT14=
EXTT15=
EXTT16=
EXTT17=
PLAYORDER=
